<mxfile host="app.diagrams.net" agent="Mozilla/5.0 (Windows NT 10.0; Win64; x64) AppleWebKit/537.36 (KHTML, like Gecko) Chrome/132.0.0.0 Safari/537.36" version="26.0.11">
  <diagram name="Σελίδα-1" id="eaQRf7v2afk4RXaeFcNt">
    <mxGraphModel dx="2261" dy="738" grid="1" gridSize="10" guides="1" tooltips="1" connect="1" arrows="1" fold="1" page="1" pageScale="1" pageWidth="827" pageHeight="1169" math="0" shadow="0">
      <root>
        <mxCell id="0" />
        <mxCell id="1" parent="0" />
        <mxCell id="IFsJlZ_J_aEPBaLN0Yu_-1" value="&lt;b&gt;&lt;font style=&quot;font-size: 15px;&quot;&gt;Bookings&lt;/font&gt;&lt;/b&gt;&lt;div&gt;(bookCode(PK)&lt;/div&gt;&lt;div&gt;bookDt&lt;/div&gt;&lt;div&gt;payCode(FK),&lt;/div&gt;&lt;div&gt;custCode(FK),&lt;/div&gt;&lt;div&gt;staffNo(FK))&lt;/div&gt;" style="rounded=0;whiteSpace=wrap;html=1;" vertex="1" parent="1">
          <mxGeometry x="550" y="50" width="201.5" height="200" as="geometry" />
        </mxCell>
        <mxCell id="IFsJlZ_J_aEPBaLN0Yu_-2" value="&lt;b&gt;&lt;font style=&quot;font-size: 15px;&quot;&gt;Customers&lt;/font&gt;&lt;/b&gt;&lt;div&gt;(custCode(PK),&lt;/div&gt;&lt;div&gt;custName,&lt;/div&gt;&lt;div&gt;custSurname,&lt;/div&gt;&lt;div&gt;custPhone)&lt;/div&gt;" style="rounded=0;whiteSpace=wrap;html=1;" vertex="1" parent="1">
          <mxGeometry x="827" y="20" width="200" height="100" as="geometry" />
        </mxCell>
        <mxCell id="IFsJlZ_J_aEPBaLN0Yu_-3" value="&lt;b&gt;&lt;font style=&quot;font-size: 14px;&quot;&gt;Employees&lt;/font&gt;&lt;/b&gt;&lt;div&gt;(staffNo(PK),&lt;/div&gt;&lt;div&gt;staffName,&lt;/div&gt;&lt;div&gt;staffSurname)&lt;/div&gt;" style="rounded=0;whiteSpace=wrap;html=1;" vertex="1" parent="1">
          <mxGeometry x="824.5" y="320" width="205" height="90" as="geometry" />
        </mxCell>
        <mxCell id="IFsJlZ_J_aEPBaLN0Yu_-4" value="&lt;b&gt;&lt;font style=&quot;font-size: 15px;&quot;&gt;Payments&lt;/font&gt;&lt;/b&gt;&lt;div&gt;(payCode,&lt;/div&gt;&lt;div&gt;payMethod)&lt;/div&gt;" style="rounded=0;whiteSpace=wrap;html=1;" vertex="1" parent="1">
          <mxGeometry x="829.5" y="140" width="200" height="110" as="geometry" />
        </mxCell>
        <mxCell id="IFsJlZ_J_aEPBaLN0Yu_-6" value="&lt;b&gt;&lt;font style=&quot;font-size: 15px;&quot;&gt;Campsites&lt;/font&gt;&lt;/b&gt;&lt;div&gt;(campCode(PK),&lt;/div&gt;&lt;div&gt;campName,&lt;/div&gt;&lt;div&gt;numOfEmp)&lt;/div&gt;" style="rounded=0;whiteSpace=wrap;html=1;" vertex="1" parent="1">
          <mxGeometry x="-290" y="265" width="230" height="90" as="geometry" />
        </mxCell>
        <mxCell id="IFsJlZ_J_aEPBaLN0Yu_-7" value="&lt;b&gt;&lt;font style=&quot;font-size: 15px;&quot;&gt;Categories&lt;/font&gt;&lt;/b&gt;&lt;div&gt;(catCode(PK),&lt;/div&gt;&lt;div&gt;areaM2,&lt;/div&gt;&lt;div&gt;unitCost)&lt;/div&gt;" style="rounded=0;whiteSpace=wrap;html=1;" vertex="1" parent="1">
          <mxGeometry x="-300" y="100" width="200" height="90" as="geometry" />
        </mxCell>
        <mxCell id="IFsJlZ_J_aEPBaLN0Yu_-8" value="&lt;b&gt;&lt;font style=&quot;font-size: 15px;&quot;&gt;Emplacements&lt;/font&gt;&lt;/b&gt;&lt;div&gt;(campCode(PK),&lt;/div&gt;&lt;div&gt;empNo(PK),&lt;/div&gt;&lt;div&gt;catCode(FK))&lt;/div&gt;" style="rounded=0;whiteSpace=wrap;html=1;" vertex="1" parent="1">
          <mxGeometry x="10" y="110" width="190" height="95" as="geometry" />
        </mxCell>
        <mxCell id="IFsJlZ_J_aEPBaLN0Yu_-9" value="&lt;b&gt;&lt;font style=&quot;font-size: 14px;&quot;&gt;BookingDetails&lt;/font&gt;&lt;/b&gt;&lt;div&gt;(bookCode(PK,FK)&lt;span style=&quot;background-color: transparent; color: light-dark(rgb(0, 0, 0), rgb(255, 255, 255));&quot;&gt;,&lt;/span&gt;&lt;/div&gt;&lt;div&gt;campCode&lt;span style=&quot;background-color: transparent; color: light-dark(rgb(0, 0, 0), rgb(255, 255, 255));&quot;&gt;(PK,FK)&lt;/span&gt;&lt;span style=&quot;background-color: transparent; color: light-dark(rgb(0, 0, 0), rgb(255, 255, 255));&quot;&gt;,&lt;/span&gt;&lt;/div&gt;&lt;div&gt;empNo&lt;span style=&quot;background-color: transparent; color: light-dark(rgb(0, 0, 0), rgb(255, 255, 255));&quot;&gt;(PK,FK)&lt;/span&gt;&lt;span style=&quot;background-color: transparent; color: light-dark(rgb(0, 0, 0), rgb(255, 255, 255));&quot;&gt;,&lt;/span&gt;&lt;/div&gt;&lt;div&gt;startDt(PK),&lt;/div&gt;&lt;div&gt;endDt,&lt;/div&gt;&lt;div&gt;noPers)&lt;/div&gt;" style="rounded=0;whiteSpace=wrap;html=1;" vertex="1" parent="1">
          <mxGeometry x="280" y="55" width="210" height="210" as="geometry" />
        </mxCell>
        <mxCell id="IFsJlZ_J_aEPBaLN0Yu_-10" value="" style="edgeStyle=entityRelationEdgeStyle;fontSize=12;html=1;endArrow=ERoneToMany;rounded=0;entryX=1;entryY=0.5;entryDx=0;entryDy=0;exitX=0;exitY=0.25;exitDx=0;exitDy=0;" edge="1" parent="1" source="IFsJlZ_J_aEPBaLN0Yu_-1" target="IFsJlZ_J_aEPBaLN0Yu_-9">
          <mxGeometry width="100" height="100" relative="1" as="geometry">
            <mxPoint x="360" y="410" as="sourcePoint" />
            <mxPoint x="460" y="310" as="targetPoint" />
          </mxGeometry>
        </mxCell>
        <mxCell id="IFsJlZ_J_aEPBaLN0Yu_-11" value="" style="edgeStyle=entityRelationEdgeStyle;fontSize=12;html=1;endArrow=ERoneToMany;rounded=0;exitX=-0.01;exitY=0.35;exitDx=0;exitDy=0;exitPerimeter=0;entryX=1.005;entryY=0.35;entryDx=0;entryDy=0;entryPerimeter=0;" edge="1" parent="1" source="IFsJlZ_J_aEPBaLN0Yu_-2" target="IFsJlZ_J_aEPBaLN0Yu_-1">
          <mxGeometry width="100" height="100" relative="1" as="geometry">
            <mxPoint x="360" y="410" as="sourcePoint" />
            <mxPoint x="460" y="310" as="targetPoint" />
          </mxGeometry>
        </mxCell>
        <mxCell id="IFsJlZ_J_aEPBaLN0Yu_-13" value="" style="edgeStyle=entityRelationEdgeStyle;fontSize=12;html=1;endArrow=ERoneToMany;rounded=0;entryX=1.002;entryY=0.795;entryDx=0;entryDy=0;exitX=0;exitY=0.25;exitDx=0;exitDy=0;entryPerimeter=0;" edge="1" parent="1" source="IFsJlZ_J_aEPBaLN0Yu_-3" target="IFsJlZ_J_aEPBaLN0Yu_-1">
          <mxGeometry width="100" height="100" relative="1" as="geometry">
            <mxPoint x="300" y="265.96000000000004" as="sourcePoint" />
            <mxPoint x="390.5" y="130" as="targetPoint" />
            <Array as="points">
              <mxPoint x="344" y="266" />
              <mxPoint x="390" y="240" />
              <mxPoint x="370" y="200" />
            </Array>
          </mxGeometry>
        </mxCell>
        <mxCell id="IFsJlZ_J_aEPBaLN0Yu_-14" value="" style="edgeStyle=entityRelationEdgeStyle;fontSize=12;html=1;endArrow=ERoneToMany;rounded=0;exitX=0;exitY=0.25;exitDx=0;exitDy=0;entryX=1.005;entryY=0.538;entryDx=0;entryDy=0;entryPerimeter=0;" edge="1" parent="1" source="IFsJlZ_J_aEPBaLN0Yu_-4" target="IFsJlZ_J_aEPBaLN0Yu_-1">
          <mxGeometry width="100" height="100" relative="1" as="geometry">
            <mxPoint x="410" y="240" as="sourcePoint" />
            <mxPoint x="510" y="160" as="targetPoint" />
            <Array as="points">
              <mxPoint x="610" y="210" />
              <mxPoint x="420" y="180" />
            </Array>
          </mxGeometry>
        </mxCell>
        <mxCell id="IFsJlZ_J_aEPBaLN0Yu_-17" value="" style="edgeStyle=entityRelationEdgeStyle;fontSize=12;html=1;endArrow=ERoneToMany;rounded=0;exitX=1;exitY=0.25;exitDx=0;exitDy=0;entryX=0;entryY=0.75;entryDx=0;entryDy=0;" edge="1" parent="1" source="IFsJlZ_J_aEPBaLN0Yu_-6" target="IFsJlZ_J_aEPBaLN0Yu_-8">
          <mxGeometry width="100" height="100" relative="1" as="geometry">
            <mxPoint x="360" y="410" as="sourcePoint" />
            <mxPoint x="460" y="310" as="targetPoint" />
            <Array as="points">
              <mxPoint y="250" />
            </Array>
          </mxGeometry>
        </mxCell>
        <mxCell id="IFsJlZ_J_aEPBaLN0Yu_-19" value="" style="edgeStyle=entityRelationEdgeStyle;fontSize=12;html=1;endArrow=ERoneToMany;rounded=0;exitX=1;exitY=0.5;exitDx=0;exitDy=0;entryX=0;entryY=0.25;entryDx=0;entryDy=0;" edge="1" parent="1" source="IFsJlZ_J_aEPBaLN0Yu_-8" target="IFsJlZ_J_aEPBaLN0Yu_-9">
          <mxGeometry width="100" height="100" relative="1" as="geometry">
            <mxPoint x="360" y="410" as="sourcePoint" />
            <mxPoint x="460" y="310" as="targetPoint" />
          </mxGeometry>
        </mxCell>
        <mxCell id="IFsJlZ_J_aEPBaLN0Yu_-20" value="" style="edgeStyle=entityRelationEdgeStyle;fontSize=12;html=1;endArrow=ERoneToMany;rounded=0;exitX=1.005;exitY=0.333;exitDx=0;exitDy=0;exitPerimeter=0;entryX=0;entryY=0.25;entryDx=0;entryDy=0;" edge="1" parent="1" source="IFsJlZ_J_aEPBaLN0Yu_-7" target="IFsJlZ_J_aEPBaLN0Yu_-8">
          <mxGeometry width="100" height="100" relative="1" as="geometry">
            <mxPoint x="360" y="410" as="sourcePoint" />
            <mxPoint x="460" y="310" as="targetPoint" />
          </mxGeometry>
        </mxCell>
      </root>
    </mxGraphModel>
  </diagram>
</mxfile>
